name rise37.2698peak67.6939fall79.5734.mot
datacolumns 19
datarows 20
range 9.26163400000000 9.29329500000000
endheader
time	ground_force1_vx	ground_force1_vy	ground_force1_vz	ground_force1_px	ground_force1_py	ground_force1_pz	ground_force2_vx	ground_force2_vy	ground_force2_vz	ground_force2_px	ground_force2_py	ground_force2_pz	ground_torque1_x	ground_torque1_y	ground_torque1_z	ground_torque2_x	ground_torque2_y	ground_torque2_z	
9.26163400000000	-4.54505000000000	40.53527500000000	-9.79376400000000	0.33454200000000	0.00000000000000	0.08497800000000	-49.65256400000000	781.70350299999996	-51.46747600000000	0.12106500000000	0.00000000000000	-0.08540800000000	0.00000000000000	-7.00525300000000	0.00000000000000	0.00000000000000	-18.88096600000000	0.00000000000000	
9.26329700000000	-4.88292300000000	47.47346500000000	-11.01335800000000	0.33814200000000	0.00000000000000	0.08612300000000	-50.32643800000000	779.52763800000002	-51.09855000000000	0.12023700000000	0.00000000000000	-0.08527100000000	0.00000000000000	-7.94664500000000	0.00000000000000	0.00000000000000	-18.83993800000000	0.00000000000000	
9.26496500000000	-5.10424600000000	54.49067400000000	-12.12171600000000	0.34145700000000	0.00000000000000	0.08716700000000	-51.02034400000000	777.25475300000005	-50.71438500000000	0.11940600000000	0.00000000000000	-0.08513100000000	0.00000000000000	-8.82356700000000	0.00000000000000	0.00000000000000	-18.80122500000000	0.00000000000000	
9.26663000000000	-5.19511400000000	61.49635000000000	-13.09293400000000	0.34453300000000	0.00000000000000	0.08812500000000	-51.73372500000000	774.88109799999995	-50.31504300000000	0.11857200000000	0.00000000000000	-0.08498900000000	0.00000000000000	-9.61670100000000	0.00000000000000	0.00000000000000	-18.76479200000000	0.00000000000000	
9.26830200000000	-5.14734900000000	68.42247600000000	-13.90982900000000	0.34740500000000	0.00000000000000	0.08900800000000	-52.46592400000000	772.40280600000006	-49.90059600000000	0.11773500000000	0.00000000000000	-0.08484300000000	0.00000000000000	-10.31274500000000	0.00000000000000	0.00000000000000	-18.73058700000000	0.00000000000000	
9.26996300000000	-4.95836700000000	75.22564000000000	-14.56405100000000	0.35010200000000	0.00000000000000	0.08982800000000	-53.21617800000000	769.81591200000003	-49.47112100000000	0.11689600000000	0.00000000000000	-0.08469500000000	0.00000000000000	-10.90459500000000	0.00000000000000	0.00000000000000	-18.69853700000000	0.00000000000000	
9.27163700000000	-4.63061000000000	81.88673300000001	-15.05545500000000	0.35264900000000	0.00000000000000	0.09059200000000	-53.98361900000000	767.11635899999999	-49.02670500000000	0.11605600000000	0.00000000000000	-0.08454400000000	0.00000000000000	-11.39100300000000	0.00000000000000	0.00000000000000	-18.66855300000000	0.00000000000000	
9.27329700000000	-4.17067400000000	88.40869800000000	-15.39090700000000	0.35506300000000	0.00000000000000	0.09130600000000	-54.76727100000000	764.30001600000003	-48.56744100000000	0.11521500000000	0.00000000000000	-0.08438900000000	0.00000000000000	-11.77580300000000	0.00000000000000	0.00000000000000	-18.64052300000000	0.00000000000000	
9.27497000000000	-3.58824700000000	94.81285400000000	-15.58272200000000	0.35736300000000	0.00000000000000	0.09197700000000	-55.56605500000000	761.36268600000005	-48.09343400000000	0.11437500000000	0.00000000000000	-0.08423200000000	0.00000000000000	-12.06685700000000	0.00000000000000	0.00000000000000	-18.61431900000000	0.00000000000000	
9.27663500000000	-2.89498600000000	101.13434100000001	-15.64692800000000	0.35956100000000	0.00000000000000	0.09260800000000	-56.37878200000000	758.30012399999998	-47.60479700000000	0.11353600000000	0.00000000000000	-0.08407200000000	0.00000000000000	-12.27484400000000	0.00000000000000	0.00000000000000	-18.58979300000000	0.00000000000000	
9.27830200000000	-2.10342500000000	107.41722600000000	-15.60152200000000	0.36166900000000	0.00000000000000	0.09320500000000	-57.20415700000000	755.10805400000004	-47.10165400000000	0.11269900000000	0.00000000000000	-0.08390900000000	0.00000000000000	-12.41203300000000	0.00000000000000	0.00000000000000	-18.56677600000000	0.00000000000000	
9.27996600000000	-1.22601900000000	113.70971500000000	-15.46487500000000	0.36369500000000	0.00000000000000	0.09377000000000	-58.04078200000000	751.78217800000004	-46.58414200000000	0.11186600000000	0.00000000000000	-0.08374400000000	0.00000000000000	-12.49113100000000	0.00000000000000	0.00000000000000	-18.54508500000000	0.00000000000000	
9.28163000000000	-0.27434500000000	120.05985099999999	-15.25437700000000	0.36564800000000	0.00000000000000	0.09430600000000	-58.88715100000000	748.31819900000005	-46.05240900000000	0.11103600000000	0.00000000000000	-0.08357500000000	0.00000000000000	-12.52429400000000	0.00000000000000	0.00000000000000	-18.52451200000000	0.00000000000000	
9.28330000000000	0.74147000000000	126.51193600000001	-14.98539200000000	0.36753300000000	0.00000000000000	0.09481700000000	-59.74165800000000	744.71183799999994	-45.50661500000000	0.11021100000000	0.00000000000000	-0.08340300000000	0.00000000000000	-12.52234600000000	0.00000000000000	0.00000000000000	-18.50483700000000	0.00000000000000	
9.28496300000000	1.81311700000000	133.10383400000001	-14.67054600000000	0.36935700000000	0.00000000000000	0.09530400000000	-60.60259400000000	740.95884599999999	-44.94693700000000	0.10939200000000	0.00000000000000	-0.08322900000000	0.00000000000000	-12.49423300000000	0.00000000000000	0.00000000000000	-18.48581900000000	0.00000000000000	
9.28663300000000	2.93426100000000	139.86520899999999	-14.31935200000000	0.37112400000000	0.00000000000000	0.09576900000000	-61.46815300000000	737.05503199999998	-44.37356300000000	0.10857900000000	0.00000000000000	-0.08305200000000	0.00000000000000	-12.44671500000000	0.00000000000000	0.00000000000000	-18.46720100000000	0.00000000000000	
9.28830100000000	4.10051300000000	146.81665200000000	-13.93813100000000	0.37283700000000	0.00000000000000	0.09621400000000	-62.33643300000000	732.99627499999997	-43.78670100000000	0.10777300000000	0.00000000000000	-0.08287200000000	0.00000000000000	-12.38427300000000	0.00000000000000	0.00000000000000	-18.44871000000000	0.00000000000000	
9.28997000000000	5.30926000000000	153.96961600000000	-13.53018800000000	0.37449900000000	0.00000000000000	0.09664100000000	-63.20544000000000	728.77854900000000	-43.18657200000000	0.10697600000000	0.00000000000000	-0.08268900000000	0.00000000000000	-12.30920400000000	0.00000000000000	0.00000000000000	-18.43005500000000	0.00000000000000	
9.29162800000000	6.55938600000000	161.32700500000001	-13.09618100000000	0.37611300000000	0.00000000000000	0.09705000000000	-64.07309100000001	724.39794099999995	-42.57341700000000	0.10618800000000	0.00000000000000	-0.08250300000000	0.00000000000000	-12.22186300000000	0.00000000000000	0.00000000000000	-18.41093400000000	0.00000000000000	
9.29329500000000	7.85092000000000	168.88425200000000	-12.63462200000000	0.37768100000000	0.00000000000000	0.09744400000000	-64.93722200000001	719.85067500000002	-41.94749400000000	0.10541000000000	0.00000000000000	-0.08231400000000	0.00000000000000	-12.12100500000000	0.00000000000000	0.00000000000000	-18.39102700000000	0.00000000000000	
